<svg xmlns="http://www.w3.org/2000/svg" viewBox="0 0 900 675" role="img" aria-labelledby="title desc">
  <title id="title">Lagarta-do-cartucho em folha de milho</title>
  <desc id="desc">Ilustracao de uma lagarta em uma folha de milho.</desc>
  <defs>
    <linearGradient id="sky" x1="0" x2="1" y1="0" y2="1">
      <stop offset="0" stop-color="#d9f3cf"/>
      <stop offset="1" stop-color="#8fd19e"/>
    </linearGradient>
    <linearGradient id="leaf" x1="0" x2="1">
      <stop offset="0" stop-color="#2f7d32"/>
      <stop offset="1" stop-color="#83b735"/>
    </linearGradient>
  </defs>
  <rect width="900" height="675" fill="url(#sky)"/>
  <path d="M0 475 C190 360 390 365 900 250 L900 675 L0 675 Z" fill="#275f2d"/>
  <path d="M120 420 C300 300 570 265 820 330 C575 410 340 480 120 420 Z" fill="url(#leaf)"/>
  <path d="M170 420 C370 375 575 345 810 330" fill="none" stroke="#d9f0af" stroke-width="10" stroke-linecap="round" opacity=".75"/>
  <g transform="translate(250 300)">
    <ellipse cx="30" cy="85" rx="52" ry="40" fill="#6f8f2d"/>
    <ellipse cx="105" cy="74" rx="58" ry="45" fill="#7fa238"/>
    <ellipse cx="185" cy="73" rx="62" ry="47" fill="#8fb343"/>
    <ellipse cx="270" cy="82" rx="58" ry="43" fill="#789733"/>
    <ellipse cx="345" cy="95" rx="48" ry="36" fill="#607d2b"/>
    <circle cx="3" cy="76" r="10" fill="#25351c"/>
    <path d="M65 40 C58 14 74 3 91 25 M160 30 C158 3 176 -5 191 20 M260 42 C268 16 289 16 296 39" fill="none" stroke="#33451d" stroke-width="8" stroke-linecap="round"/>
    <g fill="#f2d36b" opacity=".8">
      <circle cx="88" cy="70" r="7"/>
      <circle cx="150" cy="92" r="6"/>
      <circle cx="232" cy="67" r="7"/>
      <circle cx="303" cy="99" r="6"/>
    </g>
  </g>
  <text x="48" y="72" fill="#1e4a20" font-family="Inter, Arial, sans-serif" font-size="34" font-weight="700">Lagarta-do-cartucho</text>
</svg>
