<svg xmlns="http://www.w3.org/2000/svg" viewBox="0 0 900 675" role="img" aria-labelledby="title desc">
  <title id="title">Percevejo-marrom em vagem de soja</title>
  <desc id="desc">Ilustracao de um percevejo-marrom sobre vagens de soja.</desc>
  <defs>
    <linearGradient id="bg" x1="0" x2="1" y1="0" y2="1">
      <stop offset="0" stop-color="#f2e3b3"/>
      <stop offset="1" stop-color="#9abe6f"/>
    </linearGradient>
  </defs>
  <rect width="900" height="675" fill="url(#bg)"/>
  <g opacity=".9" fill="#4f8b38">
    <path d="M70 555 C180 420 310 400 455 505 C300 570 180 595 70 555Z"/>
    <path d="M415 520 C545 390 700 390 838 510 C690 585 545 595 415 520Z"/>
    <path d="M270 610 C365 490 500 470 620 600 C500 650 385 655 270 610Z"/>
  </g>
  <g transform="translate(300 165)">
    <ellipse cx="150" cy="220" rx="150" ry="180" fill="#7b4a2e"/>
    <path d="M70 92 C115 28 190 25 235 92 C200 124 110 124 70 92Z" fill="#8d5b39"/>
    <path d="M150 50 L150 398" stroke="#4a2c1e" stroke-width="10" stroke-linecap="round"/>
    <path d="M50 165 L-30 105 M250 165 L330 105 M43 250 L-42 285 M257 250 L342 285 M75 355 L5 430 M225 355 L295 430" fill="none" stroke="#4a2c1e" stroke-width="12" stroke-linecap="round"/>
    <circle cx="108" cy="82" r="12" fill="#24160f"/>
    <circle cx="192" cy="82" r="12" fill="#24160f"/>
    <path d="M65 160 C105 195 190 195 235 160" fill="none" stroke="#996b49" stroke-width="20" opacity=".55"/>
  </g>
  <text x="48" y="72" fill="#4a2c1e" font-family="Inter, Arial, sans-serif" font-size="34" font-weight="700">Percevejo-marrom</text>
</svg>
